<?xml version="1.0" standalone="no"?>
<!DOCTYPE svg PUBLIC "-//W3C//DTD SVG 20010904//EN"
 "http://www.w3.org/TR/2001/REC-SVG-20010904/DTD/svg10.dtd">
<svg version="1.0" xmlns="http://www.w3.org/2000/svg"
 width="500.000000pt" height="500.000000pt" viewBox="0 0 500.000000 500.000000"
 preserveAspectRatio="xMidYMid meet">

<g transform="translate(0.000000,500.000000) scale(0.100000,-0.100000)"
fill="#000000" stroke="none">
<path d="M2860 3456 c-280 -60 -506 -221 -655 -467 -50 -82 -109 -240 -120
-321 -12 -79 10 -55 29 32 74 346 343 626 691 722 67 18 106 22 240 22 195 0
267 -17 430 -99 260 -130 445 -369 502 -647 l17 -87 -24 -28 c-17 -19 -18 -22
-4 -11 20 18 20 17 21 -65 0 -45 -1 -71 -4 -57 -7 34 -21 50 -47 50 -17 0 -18
2 -6 10 13 9 13 10 0 9 -8 0 -24 -4 -35 -8 -16 -7 -12 -10 23 -15 23 -4 40
-11 37 -15 -6 -11 -348 69 -357 83 -4 6 -10 7 -13 4 -12 -12 19 -35 39 -30 14
4 17 2 11 -7 -5 -10 -2 -11 14 -6 13 4 21 2 21 -5 0 -7 8 -9 21 -5 16 5 19 4
14 -5 -5 -9 -2 -10 14 -5 13 4 21 2 21 -5 0 -7 8 -9 21 -5 16 5 19 4 14 -5 -5
-9 -2 -10 14 -5 13 4 21 2 21 -5 0 -7 8 -9 21 -5 16 5 19 4 14 -5 -5 -9 -2
-10 14 -5 13 4 21 2 21 -5 0 -7 8 -9 21 -5 15 5 19 4 15 -4 -4 -6 -2 -11 3
-11 6 0 12 -12 12 -27 1 -18 3 -22 6 -10 3 10 11 29 18 43 13 25 13 24 20 -24
4 -34 2 -58 -6 -74 l-13 -23 -7 25 c-6 23 -7 22 -8 -9 -1 -34 -1 -34 19 -16
11 10 22 16 24 14 8 -8 -34 -150 -65 -221 -120 -276 -382 -491 -674 -553 -96
-21 -282 -23 -375 -6 -172 33 -342 119 -472 239 -31 30 -63 52 -69 50 -17 -6
105 -114 188 -169 86 -56 194 -102 301 -129 120 -31 338 -28 468 5 167 42 302
117 427 234 93 88 152 168 208 286 62 131 88 232 96 375 23 457 -262 852 -712
986 -75 22 -113 27 -235 30 -97 2 -166 -1 -210 -10z"/>
<path d="M3360 3020 c0 -3 -9 -11 -21 -18 -17 -11 -20 -11 -13 0 4 7 -5 2 -19
-11 -28 -26 -36 -40 -14 -25 7 5 4 1 -7 -9 -25 -23 -28 -55 -5 -78 9 -9 15
-20 12 -23 -3 -3 2 -8 11 -12 9 -3 13 -10 10 -15 -3 -5 2 -12 10 -15 9 -3 14
-10 11 -14 -3 -5 2 -13 11 -18 9 -5 15 -13 14 -18 -1 -5 4 -10 12 -12 9 -2 8
0 -2 7 -8 6 -11 11 -7 11 5 0 -12 30 -38 66 -25 37 -40 64 -33 61 106 -42 98
-34 98 -91 0 -29 -5 -57 -10 -62 -8 -8 -6 -15 5 -24 13 -11 15 -3 15 74 0 86
0 88 35 123 19 20 32 40 29 44 -8 14 -16 11 -9 -3 4 -7 -3 -2 -14 12 -11 14
-19 31 -16 38 3 7 0 10 -5 7 -6 -3 -10 -3 -10 2 0 4 -11 8 -25 8 -14 0 -25 -2
-25 -5z"/>
<path d="M3435 3001 c-3 -5 -2 -12 3 -15 5 -3 9 1 9 9 0 17 -3 19 -12 6z"/>
<path d="M3474 2932 c3 -5 0 -13 -6 -15 -9 -4 -10 -6 -1 -6 17 -1 25 16 12 25
-7 4 -9 3 -5 -4z"/>
<path d="M3469 2887 c-35 -29 -49 -58 -49 -99 0 -43 16 -61 42 -47 10 6 16 15
12 22 -4 7 -4 9 1 5 11 -11 35 11 35 32 0 10 6 22 13 28 24 20 22 -70 -2 -100
-30 -37 -77 -55 -105 -39 -19 12 -19 12 -6 -2 8 -8 39 -22 68 -32 32 -10 50
-21 46 -27 -5 -8 3 -9 27 -3 43 11 87 12 119 3 20 -5 29 -1 44 20 20 27 20 27
0 10 -21 -19 -21 -19 -152 18 l-53 15 21 30 c12 16 25 29 29 29 4 0 44 -16 89
-36 75 -32 84 -34 98 -20 8 9 20 16 25 16 5 0 8 17 8 38 -2 30 -3 32 -6 10 -2
-16 -8 -28 -12 -28 -15 0 -222 98 -224 106 -1 5 -6 8 -11 6 -5 -2 -6 4 -3 12
4 9 1 18 -5 22 -7 5 -8 2 -3 -6 6 -9 4 -11 -4 -6 -7 5 -10 14 -7 22 9 23 -8
23 -35 1z m209 -147 c28 -12 52 -29 52 -36 0 -9 -24 -3 -82 21 -45 19 -84 35
-85 35 -2 0 -3 7 -3 15 0 17 -4 18 118 -35z"/>
<path d="M3761 2834 c0 -11 3 -14 6 -6 3 7 2 16 -1 19 -3 4 -6 -2 -5 -13z"/>
<path d="M3501 2604 c0 -11 3 -14 6 -6 3 7 2 16 -1 19 -3 4 -6 -2 -5 -13z"/>
<path d="M1456 2595 c34 -91 -14 -245 -77 -245 -29 0 -38 36 -28 109 8 59 5
94 -5 60 -33 -114 -74 -172 -115 -167 -37 4 -39 49 -6 128 33 78 31 114 -8
118 -38 5 -96 -34 -113 -75 -13 -29 -12 -37 1 -63 9 -17 21 -30 27 -30 6 0 4
8 -5 18 -21 23 -22 61 -2 88 18 26 81 58 101 50 20 -8 18 -21 -16 -106 -35
-89 -36 -104 -10 -130 29 -29 48 -25 90 19 l38 40 6 -29 c14 -72 89 -55 125
29 26 61 29 158 5 187 -15 19 -16 19 -8 -1z"/>
<path d="M3520 2585 c-7 -9 -9 -22 -5 -32 8 -17 8 -17 12 0 3 9 14 17 26 18
21 0 21 1 2 8 -19 8 -18 9 5 13 l25 5 -26 2 c-15 0 -32 -6 -39 -14z"/>
<path d="M3609 2583 c17 -3 20 -7 12 -13 -20 -12 56 -23 77 -11 16 10 16 10
-1 11 -10 0 -16 3 -14 8 3 4 -18 8 -46 8 -29 1 -41 0 -28 -3z m68 -19 c-3 -3
-12 -4 -19 -1 -8 3 -5 6 6 6 11 1 17 -2 13 -5z"/>
<path d="M3715 2551 c-16 -7 -13 -9 18 -15 22 -4 44 -3 55 4 13 9 10 10 -18 5
-26 -5 -31 -4 -20 4 13 10 13 11 0 10 -8 0 -24 -4 -35 -8z"/>
<path d="M3548 2533 c6 -2 18 -2 25 0 6 3 1 5 -13 5 -14 0 -19 -2 -12 -5z"/>
<path d="M3805 2531 c-16 -7 -14 -9 16 -15 20 -3 47 -2 60 4 20 8 17 9 -16 4
-30 -4 -36 -3 -25 5 13 10 13 11 0 10 -8 0 -24 -4 -35 -8z"/>
<path d="M1487 2443 c-4 -3 -7 -11 -7 -17 0 -6 5 -5 12 2 6 6 9 14 7 17 -3 3
-9 2 -12 -2z"/>
<path d="M2575 2435 c-3 -8 -7 -22 -10 -30 -5 -17 -67 -50 -111 -59 -33 -7
-84 7 -84 24 0 5 8 10 19 10 22 0 45 25 36 40 -10 17 -30 11 -56 -16 -50 -54
-119 -71 -139 -34 -11 21 -45 27 -55 9 -5 -7 -13 -4 -26 7 -17 15 -20 15 -43
0 -22 -14 -25 -14 -20 -1 8 21 1 19 -42 -10 -20 -14 -49 -25 -65 -25 -27 0
-59 22 -59 41 0 18 -17 9 -28 -16 -11 -25 -32 -34 -32 -15 0 12 33 46 51 52 8
3 11 8 8 11 -3 4 -30 -9 -60 -28 -62 -39 -125 -56 -175 -48 -42 7 -46 35 -8
60 25 16 27 16 41 -3 15 -19 15 -19 11 1 -5 32 -40 29 -89 -9 -57 -46 -101
-61 -129 -46 -17 9 -20 17 -15 37 4 16 2 22 -5 18 -17 -11 -11 -54 9 -65 29
-15 62 -12 97 9 30 18 31 18 55 -1 20 -17 34 -19 80 -15 31 3 70 12 87 21 31
16 32 16 32 -4 0 -24 17 -26 40 -5 16 14 21 14 52 -1 33 -15 37 -15 81 4 35
15 44 17 40 6 -8 -21 11 -17 32 6 23 26 45 26 52 -1 6 -20 6 -20 30 3 l24 23
17 -22 c25 -31 56 -37 96 -18 32 15 36 15 60 -1 35 -22 100 -15 165 20 63 32
89 34 93 4 4 -30 43 -35 104 -14 42 14 44 14 44 -5 0 -23 17 -25 40 -4 16 14
21 14 52 -1 33 -15 37 -15 81 4 41 18 47 19 59 5 17 -21 96 -12 142 17 21 12
35 25 32 27 -3 3 -20 -4 -39 -16 -38 -23 -67 -27 -67 -9 0 6 -7 20 -16 30 -14
14 -14 20 -4 33 26 31 -5 13 -51 -30 -26 -24 -59 -47 -73 -51 -37 -9 -74 3
-81 26 -9 27 -19 25 -33 -5 -11 -25 -32 -34 -32 -15 0 12 33 46 51 52 8 3 11
8 8 12 -3 3 -26 -7 -52 -24 -91 -58 -165 -65 -153 -14 6 24 5 25 -22 19 -27
-6 -29 -4 -25 19 6 28 -14 37 -22 11z m-170 -35 c-3 -5 -11 -10 -16 -10 -6 0
-7 5 -4 10 3 6 11 10 16 10 6 0 7 -4 4 -10z m665 -32 c0 -9 -31 -11 -55 -2
-14 6 -14 8 1 25 16 18 18 18 36 3 10 -10 18 -21 18 -26z"/>
<path d="M1835 2096 c-22 -32 -13 -76 15 -76 10 0 21 4 24 9 4 5 -3 7 -14 4
-16 -4 -20 0 -20 20 0 14 3 32 6 41 7 18 30 21 37 6 3 -6 4 -5 3 2 -5 23 -34
20 -51 -6z"/>
<path d="M1942 2103 c-14 -26 -16 -44 -2 -23 8 13 10 12 10 -2 0 -10 -6 -18
-13 -18 -7 0 -18 -9 -25 -20 -10 -17 -10 -20 3 -20 8 0 14 5 13 12 -2 6 6 14
16 16 14 3 17 0 13 -12 -4 -10 -1 -16 7 -16 11 0 12 9 5 43 -14 63 -15 64 -27
40z"/>
<path d="M2022 2083 c-2 -20 -8 -43 -14 -50 -8 -10 -6 -13 6 -13 9 0 15 3 15
8 -1 4 0 18 1 32 2 23 3 22 11 -7 5 -18 12 -33 14 -33 2 0 11 12 20 28 l16 27
-4 -27 c-3 -20 0 -28 10 -28 8 0 12 4 8 9 -3 6 -1 28 4 50 11 50 0 53 -25 6
-10 -19 -22 -35 -25 -35 -4 0 -10 16 -13 35 -9 46 -21 45 -24 -2z"/>
<path d="M2155 2111 c3 -6 1 -28 -4 -50 -9 -41 -9 -41 20 -41 16 0 29 4 29 9
0 5 -10 7 -22 3 -18 -4 -20 -2 -15 19 4 13 7 32 7 43 0 13 5 17 20 13 11 -3
20 -1 20 4 0 5 -14 9 -31 9 -16 0 -28 -4 -24 -9z"/>
<path d="M2242 2083 c-2 -20 -8 -43 -14 -50 -8 -10 -6 -13 10 -13 15 0 19 5
15 20 -3 11 -1 20 5 20 5 0 12 -9 15 -20 3 -11 10 -20 16 -20 9 0 9 6 1 20 -8
14 -7 25 2 40 11 17 10 22 -2 30 -31 20 -46 11 -48 -27z m36 10 c-2 -9 -8 -18
-15 -20 -7 -3 -9 3 -6 16 6 25 26 28 21 4z"/>
<path d="M2338 2069 c-19 -36 -22 -49 -12 -49 8 0 13 5 12 12 -2 6 6 14 16 16
14 3 17 0 13 -12 -4 -10 -1 -16 7 -16 11 0 12 10 5 47 -5 25 -10 48 -12 49 -1
1 -14 -20 -29 -47z m27 1 c3 -5 1 -10 -4 -10 -6 0 -11 5 -11 10 0 6 2 10 4 10
3 0 8 -4 11 -10z"/>
<path d="M2481 2111 c-13 -8 -13 -13 -1 -38 8 -15 16 -31 18 -35 2 -5 -3 -8
-11 -8 -9 0 -18 6 -20 13 -3 7 -6 5 -6 -5 -1 -22 37 -24 45 -3 4 8 -1 26 -10
40 -17 26 -2 49 16 24 8 -12 9 -12 6 0 -5 19 -19 23 -37 12z"/>
<path d="M2540 2110 c0 -5 7 -7 15 -4 11 5 13 -2 8 -33 -3 -21 -11 -41 -17
-45 -7 -5 -3 -8 9 -8 16 0 20 7 22 41 1 46 10 60 23 39 8 -13 10 -12 10 3 0
13 -8 17 -35 17 -19 0 -35 -4 -35 -10z"/>
<path d="M2675 2106 c16 -12 18 -19 10 -42 -6 -16 -19 -30 -29 -32 -17 -4 -18
1 -13 39 5 40 4 42 -9 25 -36 -50 8 -103 50 -60 21 20 21 70 0 78 -26 10 -29
7 -9 -8z"/>
<path d="M2736 2106 c3 -8 1 -30 -4 -50 -8 -29 -8 -36 3 -36 8 0 12 6 9 14 -3
8 0 17 6 21 7 4 14 -2 17 -14 3 -12 9 -21 14 -21 5 0 4 11 -1 24 -5 15 -5 27
2 34 17 17 1 42 -26 42 -18 0 -24 -4 -20 -14z m42 -13 c-5 -25 -28 -28 -28 -4
0 12 6 21 16 21 9 0 14 -7 12 -17z"/>
<path d="M2832 2083 c-2 -20 -8 -43 -14 -50 -8 -10 -3 -13 26 -13 20 0 36 4
36 9 0 5 -10 7 -22 3 -18 -4 -20 -2 -15 19 4 13 7 32 7 43 0 13 5 17 20 13 11
-3 20 -1 20 4 0 5 -13 9 -28 9 -25 0 -28 -4 -30 -37z"/>
</g>
</svg>
